<?xml version="1.0" encoding="UTF-8" standalone="no"?>
<svg
   width="680"
   height="390"
   viewBox="0 0 680 390"
   version="1.1"
   id="svg22"
   sodipodi:docname="Final Logo.svg"
   inkscape:version="1.4.2 (f4327f4, 2025-05-13)"
   xmlns:inkscape="http://www.inkscape.org/namespaces/inkscape"
   xmlns:sodipodi="http://sodipodi.sourceforge.net/DTD/sodipodi-0.dtd"
   xmlns="http://www.w3.org/2000/svg"
   xmlns:svg="http://www.w3.org/2000/svg">
  <sodipodi:namedview
     id="namedview1"
     pagecolor="#ffffff"
     bordercolor="#000000"
     borderopacity="0.25"
     inkscape:showpageshadow="2"
     inkscape:pageopacity="0.0"
     inkscape:pagecheckerboard="0"
     inkscape:deskcolor="#d1d1d1"
     inkscape:zoom="2.0692308"
     inkscape:cx="339.98141"
     inkscape:cy="233.66171"
     inkscape:window-width="1920"
     inkscape:window-height="1009"
     inkscape:window-x="-8"
     inkscape:window-y="-8"
     inkscape:window-maximized="1"
     inkscape:current-layer="svg22" />
  <defs
     id="defs22" />
  <style
     id="style1">
    @import url('https://fonts.googleapis.com/css2?family=Sora:wght@700&amp;display=swap');
  </style>
  <!-- BLUE PHONE — -12deg, 120x200 -->
  <g
     transform="rotate(-12,295,180)"
     id="g6"
     style="display:inline">
    <path
       id="rect1"
       style="baseline-shift:baseline;display:inline;overflow:visible;vector-effect:none;fill:#3b82f6;enable-background:accumulate;stop-color:#000000;stop-opacity:1;opacity:1"
       d="M 343.27262 78.859483 L 341.03525 78.403882 C 339.72993 78.138136 338.37977 77.999409 336.99991 77.999409 L 253.00019 77.999735 C 241.955 77.999735 233.00111 86.951945 233.00111 97.99744 L 233.00088 261.99919 C 233.00088 273.04469 241.9548 282.00059 253.00009 282.00059 L 319.74842 281.99742 L 320.55948 278.1723 L 304.80493 271.15553 C 304.2987 270.93015 303.80732 270.68161 303.33563 270.41192 L 303.33372 270.41151 C 303.33072 270.40951 303.32989 270.40807 303.32689 270.40607 L 303.32498 270.40566 C 302.38657 269.86811 301.52283 269.24836 300.73623 268.55951 C 300.34126 268.21362 299.96676 267.85079 299.61162 267.47184 C 298.90116 266.71373 298.26952 265.89188 297.72617 265.0224 C 295.8229 261.97667 294.97281 258.33071 295.40711 254.68345 C 295.53113 253.64157 295.76156 252.59922 296.10121 251.56828 C 296.27112 251.05258 296.46705 250.54066 296.69316 250.0328 L 357.0009 114.58227 L 356.99958 108.58572 C 356.48012 108.85262 355.85 108.88906 355.27254 108.63196 C 354.26033 108.18129 353.80751 107.00449 354.25817 105.99228 L 356.99847 99.835691 L 356.99912 98.000807 C 356.99912 89.129713 351.21537 81.661896 343.20868 79.047565 L 343.27262 78.859483 z M 340.23799 82.323782 C 347.54122 83.810676 352.99992 90.213187 352.99992 97.999373 L 353.00043 113.73195 L 293.04144 248.40599 C 292.76055 249.03687 292.51375 249.67309 292.3021 250.31548 C 291.87869 251.60066 291.59338 252.90669 291.4381 254.21121 C 290.89446 258.77669 291.95367 263.33585 294.33383 267.14472 C 295.01433 268.23368 295.80511 269.25992 296.69379 270.20819 C 297.13823 270.68244 297.60581 271.13678 298.09972 271.56931 C 299.08804 272.43481 300.17473 273.21365 301.34935 273.8854 L 301.35166 273.88389 L 301.54719 273.99734 L 301.61284 274.01728 C 302.12045 274.29804 302.63645 274.57026 303.1773 274.81107 L 310.33713 277.99823 L 253.00002 277.99907 C 244.10131 277.99907 237.00008 270.89913 237.00008 262.00063 L 237.00031 97.998874 C 237.00031 89.100369 244.10185 81.999345 253.00066 81.999345 L 336.99998 82.000929 C 338.11312 82.000929 339.19553 82.111544 340.23799 82.323782 z M 302.91641 270.23296 L 303.25332 270.37645 C 303.16896 270.34497 302.90539 270.24678 302.81666 270.21375 C 302.85497 270.22076 302.91651 270.23306 302.91641 270.23296 z M 302.18175 274.1402 C 302.17175 274.1394 301.93342 274.10532 301.93355 274.10542 C 301.93357 274.10542 301.88303 274.08666 301.87063 274.08206 C 301.99172 274.10436 302.19657 274.1414 302.18175 274.1402 z " />
    <rect
       x="271"
       y="89"
       width="48"
       height="8"
       rx="3"
       fill="#3b82f6"
       fill-opacity="0.2"
       id="rect2"
       style="display:inline" />
    <path
       id="rect3"
       style="display:inline;opacity:0.5;fill:#3b82f6"
       d="m 297.41257,268.0008 -29.41227,8e-5 c -1.108,0 -2.00032,0.89089 -2.00032,1.99889 l -6.7e-4,0.50104 c 0,1.108 0.8932,1.99882 2.0012,1.99882 l 34.98513,3.8e-4 c -2.20281,-1.14509 -4.07704,-2.68794 -5.57307,-4.49921 z" />
    <path
       id="rect4"
       style="display:inline;opacity:0.4;fill:#3b82f6"
       d="M 356.92522 100.00183 C 355.85183 100.04055 355.00075 100.91764 355.00075 102.00086 L 354.99996 104.32492 L 356.92522 100.00183 z M 357.89685 107.65227 C 357.43524 108.64068 356.2734 109.07757 355.27254 108.63196 C 355.17703 108.58944 355.08526 108.54089 355.00002 108.48618 L 355.00026 114.15902 L 357.89685 107.65227 z " />
    <rect
       x="231"
       y="92"
       width="4"
       height="17"
       rx="2"
       fill="#3b82f6"
       opacity="0.35"
       id="rect5"
       style="display:inline" />
    <rect
       x="231"
       y="116"
       width="4"
       height="17"
       rx="2"
       fill="#3b82f6"
       opacity="0.35"
       id="rect6"
       style="display:inline" />
  </g>
  <!-- PURPLE PHONE — +12deg, 120x200, on top -->
  <path
     id="rect7"
     style="display:inline;fill:none;stroke:#8b5cf6;stroke-width:4"
     transform="rotate(12)"
     d="m 372.01093,-3.9794328 h 84 c 9.972,0 18,8.028 18,17.9999998 V 178.02057 c 0,9.972 -8.028,18 -18,18 h -84 c -9.972,0 -18,-8.028 -18,-18 V 14.020567 c 0,-9.9719998 8.028,-17.9999998 18,-17.9999998 z" />
  <rect
     x="390.01093"
     y="5.0205669"
     width="48"
     height="8"
     rx="3"
     fill="#8b5cf6"
     fill-opacity="0.2"
     id="rect8"
     transform="rotate(12)" />
  <rect
     x="385.01093"
     y="184.02057"
     width="48"
     height="4.5"
     rx="2"
     fill="#8b5cf6"
     opacity="0.5"
     id="rect9"
     transform="rotate(12)" />
  <rect
     x="474.01093"
     y="16.020567"
     width="4"
     height="26"
     rx="2"
     fill="#8b5cf6"
     opacity="0.4"
     id="rect10"
     transform="rotate(12)" />
  <path
     id="rect11"
     transform="rotate(12)"
     style="opacity:0.35;fill:#8b5cf6"
     d="m 352.01093,8.0205669 c 1.108,0 2,0.892 2,2.0000001 v 13 c 0,1.108 -0.892,2 -2,2 -1.108,0 -2,-0.892 -2,-2 v -13 c 0,-1.1080001 0.892,-2.0000001 2,-2.0000001 z" />
  <rect
     x="350.01093"
     y="32.020569"
     width="4"
     height="17"
     rx="2"
     fill="#8b5cf6"
     opacity="0.35"
     id="rect12"
     transform="rotate(12)" />
  <!-- PARTICLES -->
  <rect
     x="440"
     y="56"
     width="13"
     height="13"
     rx="2"
     fill="#8B5CF6"
     opacity="0.95"
     id="rect13" />
  <rect
     x="462"
     y="36"
     width="9"
     height="9"
     rx="1.5"
     fill="#3B82F6"
     opacity="0.85"
     id="rect14" />
  <rect
     x="480"
     y="54"
     width="8"
     height="8"
     rx="1.5"
     fill="#8B5CF6"
     opacity="0.75"
     id="rect15" />
  <rect
     x="498"
     y="38"
     width="6"
     height="6"
     rx="1"
     fill="#3B82F6"
     opacity="0.6"
     id="rect16" />
  <rect
     x="514"
     y="54"
     width="5"
     height="5"
     rx="1"
     fill="#8B5CF6"
     opacity="0.45"
     id="rect17" />
  <text
     font-family="'Courier New', monospace"
     font-size="11"
     fill="#3B82F6"
     opacity="0.8"
     x="452"
     y="30"
     id="text17">01</text>
  <text
     font-family="'Courier New', monospace"
     font-size="10"
     fill="#8B5CF6"
     opacity="0.75"
     x="472"
     y="16"
     id="text18">{}</text>
  <text
     font-family="'Courier New', monospace"
     font-size="9"
     fill="#3B82F6"
     opacity="0.65"
     x="492"
     y="28"
     id="text19">/*</text>
  <text
     font-family="'Courier New', monospace"
     font-size="9"
     fill="#8B5CF6"
     opacity="0.55"
     x="508"
     y="16"
     id="text20">fn</text>
  <text
     font-family="'Courier New', monospace"
     font-size="8"
     fill="#3B82F6"
     opacity="0.4"
     x="524"
     y="40"
     id="text21">[]</text>
  <!-- WORDMARK -->
  <text
     font-family="Sora, system-ui, sans-serif"
     font-size="62px"
     font-weight="700"
     letter-spacing="-1"
     text-anchor="middle"
     x="340.48331"
     y="362.48334"
     id="text22"><tspan
       fill="#3b82f6"
       id="tspan21">Catch</tspan><tspan
       fill="#8b5cf6"
       id="tspan22">Zone</tspan></text>
</svg>
